<?xml version="1.0" encoding="UTF-8"?>
<svg version="1.1" xmlns="http://www.w3.org/2000/svg" width="232" height="231">
<path d="M0 0 C9.57 0 19.14 0 29 0 C29 1.98 29 3.96 29 6 C27.35 6 25.7 6 24 6 C24 7.98 24 9.96 24 12 C24.66 12 25.32 12 26 12 C26 10.35 26 8.7 26 7 C28.64 7 31.28 7 34 7 C34 7.99 34 8.98 34 10 C34.66 10 35.32 10 36 10 C36.20086443 13.71599191 36.1519437 14.77208445 34 18 C33.34 18 32.68 18 32 18 C32 18.66 32 19.32 32 20 C31.01 20.495 31.01 20.495 30 21 C31.58226965 21.19627391 33.16589271 21.38165538 34.75 21.5625 C35.63171875 21.66691406 36.5134375 21.77132812 37.421875 21.87890625 C39.91463463 21.99599041 41.67125833 21.87590058 44 21 C44.33 20.34 44.66 19.68 45 19 C45.66 19 46.32 19 47 19 C47 18.34 47 17.68 47 17 C48.98 17 50.96 17 53 17 C53 17.99 53 18.98 53 20 C52.34 20 51.68 20 51 20 C51 20.66 51 21.32 51 22 C50.01 22.495 50.01 22.495 49 23 C48.505 24.485 48.505 24.485 48 26 C49.65 26 51.3 26 53 26 C53 29.63 53 33.26 53 37 C47.78283485 37.44213264 47.78283485 37.44213264 45 37 C43.29319053 35.37446717 41.62339805 33.70884005 40 32 C36.78938212 31.58109782 36.78938212 31.58109782 34 32 C34 32.66 34 33.32 34 34 C34.66 34 35.32 34 36 34 C36 34.99 36 35.98 36 37 C34.35 37 32.7 37 31 37 C31 36.34 31 35.68 31 35 C30.34 35 29.68 35 29 35 C29 35.66 29 36.32 29 37 C27.35 37 25.7 37 24 37 C23.67 36.34 23.34 35.68 23 35 C20.97536745 34.34786708 20.97536745 34.34786708 19 34 C19 32.35 19 30.7 19 29 C20.65 29 22.3 29 24 29 C24 29.66 24 30.32 24 31 C24.66 30.67 25.32 30.34 26 30 C25.67 29.34 25.34 28.68 25 28 C21.97065509 27.34227572 21.97065509 27.34227572 19 27 C18.87625 26.360625 18.7525 25.72125 18.625 25.0625 C18.41875 24.381875 18.2125 23.70125 18 23 C17.34 22.67 16.68 22.34 16 22 C16 20.35 16 18.7 16 17 C17.98 17 19.96 17 22 17 C22.33 18.32 22.66 19.64 23 21 C23.33 18.36 23.66 15.72 24 13 C23.34 13 22.68 13 22 13 C22 13.66 22 14.32 22 15 C17.05 15 12.1 15 7 15 C7 14.01 7 13.02 7 12 C10.96 12 14.92 12 19 12 C19 10.02 19 8.04 19 6 C18.34 6 17.68 6 17 6 C17 7.65 17 9.3 17 11 C15.35 11 13.7 11 12 11 C12 9.68 12 8.36 12 7 C12.66 7 13.32 7 14 7 C13.67 6.34 13.34 5.68 13 5 C12.01 5.33 11.02 5.66 10 6 C10 6.66 10 7.32 10 8 C9.34 8 8.68 8 8 8 C8 8.99 8 9.98 8 11 C7.01 11 6.02 11 5 11 C5 11.66 5 12.32 5 13 C4.34 13 3.68 13 3 13 C3 13.66 3 14.32 3 15 C0.36 15 -2.28 15 -5 15 C-5 11.7 -5 8.4 -5 5 C-3.35 5 -1.7 5 0 5 C0 3.35 0 1.7 0 0 Z M1 6 C1.33 6.99 1.66 7.98 2 9 C2 8.34 2 7.68 2 7 C2.66 6.67 3.32 6.34 4 6 C3.01 6 2.02 6 1 6 Z M27 15 C28 17 28 17 28 17 Z M34 25 C34 26.32 34 27.64 34 29 C35.32 29 36.64 29 38 29 C38 28.34 38 27.68 38 27 C37.01 27 36.02 27 35 27 C34.67 26.34 34.34 25.68 34 25 Z M44 27 C44 27.66 44 28.32 44 29 C44.66 29 45.32 29 46 29 C46.33 29.66 46.66 30.32 47 31 C47 29.68 47 28.36 47 27 C46.01 27 45.02 27 44 27 Z " fill="#9EC9F3" transform="translate(91,73)"/>
<path d="M0 0 C2.97 0 5.94 0 9 0 C11.875 7.625 11.875 7.625 13 11 C14.32 7.37 15.64 3.74 17 0 C19.64 0 22.28 0 25 0 C25.99 3.3 26.98 6.6 28 10 C29.66905241 6.66189518 30.8741386 3.53842155 32 0 C35.3 0 38.6 0 42 0 C41.36306741 3.5922998 40.4129328 6.87918241 39.15234375 10.30078125 C38.79462891 11.27724609 38.43691406 12.25371094 38.06835938 13.25976562 C37.69517578 14.26716797 37.32199219 15.27457031 36.9375 16.3125 C36.56044922 17.33923828 36.18339844 18.36597656 35.79492188 19.42382812 C34.86653932 21.95043887 33.93479871 24.47575761 33 27 C30.03 27 27.06 27 24 27 C22.68 24.03 21.36 21.06 20 18 C19.01 20.97 18.02 23.94 17 27 C14.03 27 11.06 27 8 27 C6.65649992 23.25356427 5.32698339 19.50231451 4 15.75 C3.6184375 14.68652344 3.236875 13.62304688 2.84375 12.52734375 C2.4828125 11.50253906 2.121875 10.47773438 1.75 9.421875 C1.41484375 8.47924805 1.0796875 7.53662109 0.734375 6.56542969 C0 4 0 4 0 0 Z " fill="#3F4B55" transform="translate(178,146)"/>
<path d="M0 0 C3.3 0 6.6 0 10 0 C10.02464775 5.53588533 10.04283496 11.071739 10.05493164 16.60766602 C10.05997244 18.4924373 10.06680498 20.37720465 10.07543945 22.26196289 C10.08751617 24.96501636 10.09323068 27.66801831 10.09765625 30.37109375 C10.10281754 31.21900986 10.10797882 32.06692596 10.11329651 32.9405365 C10.11349195 34.96071068 10.06206211 36.98077934 10 39 C9 40 9 40 6.9609375 40.0625 C6.10757813 40.041875 5.25421875 40.02125 4.375 40 C1.12903688 39.94913733 -1.52840823 40.09687484 -4.75 40.6875 C-8.83917785 41.08069018 -10.62867772 40.29862883 -14 38 C-17.46547387 33.93703064 -18.13878144 29.21297787 -18 24 C-17.16946857 19.72128004 -16.03436939 16.84382766 -12.625 14.0625 C-7.69884347 12.0685795 -5.36547019 11.92690596 0 13 C0 8.71 0 4.42 0 0 Z M-6 20 C-8.45811625 23.68717438 -8.31118164 25.64345704 -8 30 C-7.01 31.485 -7.01 31.485 -6 33 C-3.52733235 32.65555119 -3.52733235 32.65555119 -1 32 C0.11445498 29.77109005 0.16480286 28.46944894 0.1875 26 C0.20167969 25.29875 0.21585938 24.5975 0.23046875 23.875 C0.16512323 21.75475062 0.16512323 21.75475062 -2 20 C-3.32 20 -4.64 20 -6 20 Z " fill="#333F4A" transform="translate(56,133)"/>
<path d="M0 0 C19 0 19 0 24 1 C24 3.64 24 6.28 24 9 C19.38 9 14.76 9 10 9 C10 10.98 10 12.96 10 15 C13.96 15 17.92 15 22 15 C22 17.64 22 20.28 22 23 C18.04 23 14.08 23 10 23 C10 27.95 10 32.9 10 38 C6.7 38 3.4 38 0 38 C0 25.46 0 12.92 0 0 Z " fill="#38454F" transform="translate(108,135)"/>
<path d="M0 0 C2.86015653 1.35727428 3.91409456 2.50850183 6 5 C7.06385483 8.19156448 7.16677982 10.58497476 7.1875 13.9375 C7.20167969 14.97777344 7.21585938 16.01804688 7.23046875 17.08984375 C6.99789447 20.0265868 6.6640441 21.59460291 5 24 C0.40507894 27.42242396 -4.29902164 28.73901571 -10 28 C-13.59470303 26.54829301 -16.5695997 25.06997933 -19 22 C-20.81634495 16.55096516 -20.96831666 10.32395997 -18.75 5 C-13.4020327 -1.11196263 -7.79800909 -1.05456947 0 0 Z M-9 7 C-10.18306728 9.36613456 -10.13354608 10.86780736 -10.125 13.5 C-10.12757813 14.2940625 -10.13015625 15.088125 -10.1328125 15.90625 C-10.13277996 18.05918534 -10.13277996 18.05918534 -9 20 C-7.35 20 -5.7 20 -4 20 C-1.77076223 15.67265609 -2.07529447 12.71599818 -3 8 C-5.97 7.505 -5.97 7.505 -9 7 Z " fill="#3D4853" transform="translate(169,146)"/>
<path d="M0 0 C3.6717213 1.85009213 5.68195684 4.04587052 7 8 C7 10.64 7 13.28 7 16 C1.72 16 -3.56 16 -9 16 C-8.67 16.99 -8.34 17.98 -8 19 C-6.02 19.33 -4.04 19.66 -2 20 C-2 19.34 -2 18.68 -2 18 C0.97 18.33 3.94 18.66 7 19 C5.71461905 22.96325794 4.5361292 24.79767392 1 27 C-3.74843574 28.238041 -7.81502645 28.43089947 -12.4375 26.75 C-15.9655267 24.34061591 -17.6361984 23.09140479 -19 19 C-19.51236616 13.64955335 -19.64741984 9.31796182 -17.25 4.4375 C-12.41509609 -0.80031257 -6.82415527 -0.98614961 0 0 Z M-8 7 C-8.33 7.99 -8.66 8.98 -9 10 C-7.02 10 -5.04 10 -3 10 C-3.33 9.01 -3.66 8.02 -4 7 C-5.32 7 -6.64 7 -8 7 Z " fill="#303C48" transform="translate(29,146)"/>
<path d="M0 0 C2.64 0 5.28 0 8 0 C8 2.31 8 4.62 8 7 C10.31 7 12.62 7 15 7 C15 9.64 15 12.28 15 15 C12.69 15 10.38 15 8 15 C8.33 18.3 8.66 21.6 9 25 C9.7425 24.79375 10.485 24.5875 11.25 24.375 C14.32330841 23.95591249 15.42786866 24.38050989 18 26 C16.375 31.75 16.375 31.75 13 34 C8.48912519 34.80249646 4.993815 34.52733041 0.9375 32.375 C-2.20064263 26.90855799 -1.37492706 21.15713548 -1 15 C-1.99 15 -2.98 15 -4 15 C-4 12.36 -4 9.72 -4 7 C-3.01 7 -2.02 7 -1 7 C-0.67 4.69 -0.34 2.38 0 0 Z " fill="#37424D" transform="translate(87,139)"/>
<path d="M0 0 C2.97 0 5.94 0 9 0 C9 13.2 9 26.4 9 40 C6.03 40 3.06 40 0 40 C0 26.8 0 13.6 0 0 Z " fill="#3C4752" transform="translate(136,133)"/>
<path d="M0 0 C3.3 0 6.6 0 10 0 C10 8.91 10 17.82 10 27 C6.7 27 3.4 27 0 27 C0 18.09 0 9.18 0 0 Z " fill="#35414C" transform="translate(70,146)"/>
<path d="M0 0 C2.371875 0.185625 4.74375 0.37125 7.1875 0.5625 C7.1875 7.1625 7.1875 13.7625 7.1875 20.5625 C0.5875 20.5625 -6.0125 20.5625 -12.8125 20.5625 C-12.8125 13.9625 -12.8125 7.3625 -12.8125 0.5625 C-8.26034213 -0.34793157 -4.54055256 -0.37742878 0 0 Z M-9.8125 3.5625 C-9.8125 7.8525 -9.8125 12.1425 -9.8125 16.5625 C-5.1925 16.5625 -0.5725 16.5625 4.1875 16.5625 C4.1875 12.2725 4.1875 7.9825 4.1875 3.5625 C-0.4325 3.5625 -5.0525 3.5625 -9.8125 3.5625 Z " fill="#9DC2E8" transform="translate(98.8125,51.4375)"/>
<path d="M0 0 C6.6 0 13.2 0 20 0 C20 6.6 20 13.2 20 20 C13.4 20 6.8 20 0 20 C0 13.4 0 6.8 0 0 Z M3 3 C3 7.29 3 11.58 3 16 C7.62 16 12.24 16 17 16 C17 11.71 17 7.42 17 3 C12.38 3 7.76 3 3 3 Z " fill="#9BC0E1" transform="translate(124,52)"/>
<path d="M0 0 C1.32 0 2.64 0 4 0 C4.33 0.99 4.66 1.98 5 3 C6.65 3 8.3 3 10 3 C10 4.65 10 6.3 10 8 C10.33 8 10.66 8 11 8 C11.33 5.36 11.66 2.72 12 0 C13.32 0 14.64 0 16 0 C16 5.61 16 11.22 16 17 C14.68 17.33 13.36 17.66 12 18 C12 16.02 12 14.04 12 12 C11.01 12 10.02 12 9 12 C8.67 13.98 8.34 15.96 8 18 C5.36 18 2.72 18 0 18 C0 12.06 0 6.12 0 0 Z M4 9 C4 9.66 4 10.32 4 11 C5.32 11.33 6.64 11.66 8 12 C8 11.01 8 10.02 8 9 C6.68 9 5.36 9 4 9 Z " fill="#91C1F0" transform="translate(107,54)"/>
<path d="M0 0 C6.6 0 13.2 0 20 0 C20 6.6 20 13.2 20 20 C13.4 20 6.8 20 0 20 C0 13.4 0 6.8 0 0 Z M3 3 C2.97314062 5.14576637 2.95366912 7.29162645 2.9375 9.4375 C2.92589844 10.63246094 2.91429688 11.82742187 2.90234375 13.05859375 C2.66098208 15.88873341 2.66098208 15.88873341 4 17 C6.01964199 17.07244053 8.04167124 17.08377188 10.0625 17.0625 C11.16722656 17.05347656 12.27195312 17.04445313 13.41015625 17.03515625 C14.26480469 17.02355469 15.11945313 17.01195312 16 17 C17.31164842 14.37670316 17.13262846 12.36301375 17.125 9.4375 C17.12757812 8.44621094 17.13015625 7.45492187 17.1328125 6.43359375 C17.27438431 4.05187652 17.27438431 4.05187652 16 3 C13.81360547 2.92741054 11.62499611 2.91626217 9.4375 2.9375 C8.23996094 2.94652344 7.04242188 2.95554687 5.80859375 2.96484375 C4.41833984 2.98224609 4.41833984 2.98224609 3 3 Z " fill="#9DC7EE" transform="translate(86,90)"/>
<path d="M0 0 C0 1.65 0 3.3 0 5 C0.66 5 1.32 5 2 5 C2 3.35 2 1.7 2 0 C4.31 0 6.62 0 9 0 C9.33 0.99 9.66 1.98 10 3 C10.66 3 11.32 3 12 3 C12 4.65 12 6.3 12 8 C11.34 8 10.68 8 10 8 C9.67 8.99 9.34 9.98 9 11 C9.99 11.33 10.98 11.66 12 12 C12 12.99 12 13.98 12 15 C7.71 15 3.42 15 -1 15 C-1 12.03 -1 9.06 -1 6 C-3.97 6 -6.94 6 -10 6 C-10 5.01 -10 4.02 -10 3 C-6.62637846 0.39749195 -4.23092172 -0.36265043 0 0 Z M3 6 C3.33 6.99 3.66 7.98 4 9 C4 8.34 4 7.68 4 7 C4.66 6.67 5.32 6.34 6 6 C5.01 6 4.02 6 3 6 Z " fill="#9AC9F4" transform="translate(132,73)"/>
<path d="M0 0 C6.27 0 12.54 0 19 0 C19.33 6.27 19.66 12.54 20 19 C18.35 19.33 16.7 19.66 15 20 C13.4543243 15.36297289 13.94264372 10.87528349 14 6 C9.05 5.67 4.1 5.34 -1 5 C-0.67 3.35 -0.34 1.7 0 0 Z " fill="#A1C9F0" transform="translate(138,40)"/>
<path d="M0 0 C6.27 0 12.54 0 19 0 C19.33 1.65 19.66 3.3 20 5 C15.05 5.33 10.1 5.66 5 6 C4.67 10.62 4.34 15.24 4 20 C2.68 20 1.36 20 0 20 C-1.41852223 13.22261602 -0.63763672 6.87230691 0 0 Z " fill="#9BCBF9" transform="translate(73,40)"/>
<path d="M0 0 C1.32 0 2.64 0 4 0 C4 6.6 4 13.2 4 20 C1.256875 20.185625 -1.48625 20.37125 -4.3125 20.5625 C-5.17270752 20.62381104 -6.03291504 20.68512207 -6.91918945 20.74829102 C-7.60198975 20.79139404 -8.28479004 20.83449707 -8.98828125 20.87890625 C-9.68477783 20.9260376 -10.38127441 20.97316895 -11.09887695 21.02172852 C-13 21 -13 21 -16 20 C-16 18.68 -16 17.36 -16 16 C-14.50146484 15.81824219 -14.50146484 15.81824219 -12.97265625 15.6328125 C-11.68230469 15.46523437 -10.39195312 15.29765625 -9.0625 15.125 C-7.77472656 14.96257812 -6.48695313 14.80015625 -5.16015625 14.6328125 C-3.59587891 14.31957031 -3.59587891 14.31957031 -2 14 C-0.64908472 11.29816945 -0.66141942 8.88191794 -0.4375 5.875 C-0.35371094 4.77929688 -0.26992187 3.68359375 -0.18359375 2.5546875 C-0.12300781 1.71164063 -0.06242188 0.86859375 0 0 Z " fill="#A5D0F5" transform="translate(153,101)"/>
<path d="M0 0 C1.32 0 2.64 0 4 0 C4 4.95 4 9.9 4 15 C9.28 15.33 14.56 15.66 20 16 C20 17.32 20 18.64 20 20 C13.4 20 6.8 20 0 20 C-1.07094763 15.7162095 -0.89567799 12.08514348 -0.5625 7.75 C-0.51029297 7.00492187 -0.45808594 6.25984375 -0.40429688 5.4921875 C-0.2751783 3.66105139 -0.13834886 1.83046187 0 0 Z " fill="#9DC9F6" transform="translate(73,101)"/>
<path d="M0 0 C3.5625 0.125 3.5625 0.125 5.5625 1.125 C5.5625 4.425 5.5625 7.725 5.5625 11.125 C2.2625 11.125 -1.0375 11.125 -4.4375 11.125 C-4.53515625 3.41015625 -4.53515625 3.41015625 -4.4375 1.125 C-3.4375 0.125 -3.4375 0.125 0 0 Z " fill="#A2CEF6" transform="translate(95.4375,55.875)"/>
<path d="M0 0 C0.721875 0.00257812 1.44375 0.00515625 2.1875 0.0078125 C2.909375 0.00523438 3.63125 0.00265625 4.375 0 C6.1875 0.1328125 6.1875 0.1328125 7.1875 1.1328125 C7.33007189 4.46899481 7.22978157 7.79256856 7.1875 11.1328125 C3.8875 11.1328125 0.5875 11.1328125 -2.8125 11.1328125 C-2.91015625 3.41796875 -2.91015625 3.41796875 -2.8125 1.1328125 C-1.8125 0.1328125 -1.8125 0.1328125 0 0 Z " fill="#A5CEF7" transform="translate(131.8125,55.8671875)"/>
<path d="M0 0 C6.27 0 12.54 0 19 0 C18.67 1.32 18.34 2.64 18 4 C13.05 3.67 8.1 3.34 3 3 C3.33 7.62 3.66 12.24 4 17 C2.68 17 1.36 17 0 17 C0 11.39 0 5.78 0 0 Z " fill="#A0C8F1" transform="translate(86,90)"/>
<path d="M0 0 C3.63 0 7.26 0 11 0 C11 3.3 11 6.6 11 10 C7.7 10 4.4 10 1 10 C0.67 6.7 0.34 3.4 0 0 Z " fill="#9ECBF4" transform="translate(90,95)"/>
<path d="M0 0 C1.32 0 2.64 0 4 0 C4 5.61 4 11.22 4 17 C2.68 17.33 1.36 17.66 0 18 C0 16.02 0 14.04 0 12 C-1.32 12.33 -2.64 12.66 -4 13 C-4 11.68 -4 10.36 -4 9 C-5.32 8.67 -6.64 8.34 -8 8 C-7.01 7.67 -6.02 7.34 -5 7 C-4.26676204 4.98491642 -4.26676204 4.98491642 -4 3 C-3.34 3 -2.68 3 -2 3 C-2 4.65 -2 6.3 -2 8 C-1.67 8 -1.34 8 -1 8 C-0.67 5.36 -0.34 2.72 0 0 Z " fill="#95C2ED" transform="translate(119,54)"/>
<path d="M0 0 C3 0.25 3 0.25 5 2.25 C5.3125 5.25 5.3125 5.25 5 8.25 C2 10.25 2 10.25 -1.125 9.9375 C-4 9.25 -4 9.25 -5 8.25 C-5.1875 5.3125 -5.1875 5.3125 -5 2.25 C-3 0.25 -3 0.25 0 0 Z " fill="#344049" transform="translate(75,132.75)"/>
<path d="M0 0 C2.67927341 4.01891012 2.15601248 6.24161923 2 11 C-0.24932227 11.1954625 -2.49950142 11.38108226 -4.75 11.5625 C-6.62945312 11.71912109 -6.62945312 11.71912109 -8.546875 11.87890625 C-12 12 -12 12 -16 11 C-16 7.7 -16 4.4 -16 1 C-15.67 1 -15.34 1 -15 1 C-14.67 2.98 -14.34 4.96 -14 7 C-7.07 7.495 -7.07 7.495 0 8 C0 5.36 0 2.72 0 0 Z " fill="#97C5F5" transform="translate(103,60)"/>
<path d="M0 0 C0 1.65 0 3.3 0 5 C0.66 5 1.32 5 2 5 C2 3.35 2 1.7 2 0 C4.31 0 6.62 0 9 0 C9 0.99 9 1.98 9 3 C7.02 2.34 5.04 1.68 3 1 C3 3.97 3 6.94 3 10 C2.67 8.68 2.34 7.36 2 6 C-1.96 6 -5.92 6 -10 6 C-10 5.01 -10 4.02 -10 3 C-6.62637846 0.39749195 -4.23092172 -0.36265043 0 0 Z " fill="#A0BFE0" transform="translate(132,73)"/>
<path d="M0 0 C0.33 0 0.66 0 1 0 C1 2.31 1 4.62 1 7 C5.62 7 10.24 7 15 7 C15 5.35 15 3.7 15 2 C15.66 2 16.32 2 17 2 C17 4.64 17 7.28 17 10 C11.06 10 5.12 10 -1 10 C-0.67 6.7 -0.34 3.4 0 0 Z " fill="#97CAF7" transform="translate(126,61)"/>
<path d="M0 0 C1.98 0 3.96 0 6 0 C6 1.65 6 3.3 6 5 C8.97 5.495 8.97 5.495 12 6 C10.875 8 10.875 8 9 10 C5.8125 10.25 5.8125 10.25 3 10 C2.87625 9.360625 2.7525 8.72125 2.625 8.0625 C2.315625 7.0415625 2.315625 7.0415625 2 6 C1.34 5.67 0.68 5.34 0 5 C0 3.35 0 1.7 0 0 Z " fill="#9EC9F3" transform="translate(107,90)"/>
<path d="M0 0 C1.11503906 -0.0103125 2.23007813 -0.020625 3.37890625 -0.03125 C6.99159119 0.59624061 8.16408666 1.69853222 10.4375 4.5 C7.4675 4.005 7.4675 4.005 4.4375 3.5 C4.1393576 7.2763932 4.1393576 7.2763932 5.4375 9.5 C4.4475 10.985 4.4475 10.985 3.4375 12.5 C3.4375 11.18 3.4375 9.86 3.4375 8.5 C0.4675 8.005 0.4675 8.005 -2.5625 7.5 C-0.5625 4.5 -0.5625 4.5 1.4375 3.5 C1.1075 3.17 0.7775 2.84 0.4375 2.5 C-5.63413066 2.70040755 -5.63413066 2.70040755 -10.5625 6.0625 C-11.2225 6.866875 -11.8825 7.67125 -12.5625 8.5 C-12.24438804 5.53095508 -11.58552693 4.52269077 -9.421875 2.390625 C-6.00279397 0.12992115 -4.06463921 -0.03767916 0 0 Z " fill="#39424A" transform="translate(162.5625,145.5)"/>
<path d="M0 0 C1.48831242 0.00667405 2.97660807 0.01863442 4.46484375 0.03515625 C5.22345703 0.03966797 5.98207031 0.04417969 6.76367188 0.04882812 C8.64326246 0.06064945 10.52281274 0.07858547 12.40234375 0.09765625 C12.73234375 0.75765625 13.06234375 1.41765625 13.40234375 2.09765625 C8.45234375 2.42765625 3.50234375 2.75765625 -1.59765625 3.09765625 C-2.25765625 7.05765625 -2.91765625 11.01765625 -3.59765625 15.09765625 C-3.92765625 15.09765625 -4.25765625 15.09765625 -4.59765625 15.09765625 C-4.62451037 12.78521833 -4.64398466 10.47269355 -4.66015625 8.16015625 C-4.67175781 6.87238281 -4.68335937 5.58460937 -4.6953125 4.2578125 C-4.55688549 -0.22168547 -4.56678915 0.12396279 0 0 Z " fill="#99C7F4" transform="translate(129.59765625,51.90234375)"/>
<path d="M0 0 C0.66 0.33 1.32 0.66 2 1 C2 6.28 2 11.56 2 17 C-1.3 17 -4.6 17 -8 17 C-8 16.67 -8 16.34 -8 16 C-6.35 15.67 -4.7 15.34 -3 15 C-2.67 13.35 -2.34 11.7 -2 10 C-1.34 10 -0.68 10 0 10 C0 6.7 0 3.4 0 0 Z " fill="#9CCAFC" transform="translate(154,103)"/>
<path d="M0 0 C6.27 0 12.54 0 19 0 C19.33 1.65 19.66 3.3 20 5 C14.72 5 9.44 5 4 5 C4 4.67 4 4.34 4 4 C4.92683594 3.95101562 5.85367188 3.90203125 6.80859375 3.8515625 C8.00613281 3.77679688 9.20367187 3.70203125 10.4375 3.625 C11.63246094 3.55539063 12.82742187 3.48578125 14.05859375 3.4140625 C15.02925781 3.27742188 15.99992187 3.14078125 17 3 C17.33 2.34 17.66 1.68 18 1 C12.39 1 6.78 1 1 1 C1 4.63 1 8.26 1 12 C0.67 12 0.34 12 0 12 C0 8.04 0 4.08 0 0 Z " fill="#9EC3EB" transform="translate(73,40)"/>
<path d="M0 0 C5.61 0 11.22 0 17 0 C13 3 13 3 10.78125 3.07421875 C10.0284375 2.94660156 9.275625 2.81898437 8.5 2.6875 C5.53801584 2.21581417 3.0446949 2 0 2 C0 1.34 0 0.68 0 0 Z M8 3 C8.99 3.33 9.98 3.66 11 4 C11 6.64 11 9.28 11 12 C10.67 12 10.34 12 10 12 C10 10.02 10 8.04 10 6 C9.34 6 8.68 6 8 6 C8 7.65 8 9.3 8 11 C6.35 11 4.7 11 3 11 C4.32 10.67 5.64 10.34 7 10 C6.979375 9.030625 6.95875 8.06125 6.9375 7.0625 C7 4 7 4 8 3 Z " fill="#9CC3E6" transform="translate(100,73)"/>
<path d="M0 0 C1.32 0 2.64 0 4 0 C4 6.6 4 13.2 4 20 C-0.29 20 -4.58 20 -9 20 C-9 19.67 -9 19.34 -9 19 C-5.37 18.67 -1.74 18.34 2 18 C2 13.05 2 8.1 2 3 C1.67 5.97 1.34 8.94 1 12 C0.67 12 0.34 12 0 12 C0 8.04 0 4.08 0 0 Z " fill="#A1C6EB" transform="translate(153,101)"/>
<path d="M0 0 C3.3 0 6.6 0 10 0 C10 3.63 10 7.26 10 11 C7.36 11 4.72 11 2 11 C2.33 10.34 2.66 9.68 3 9 C4.65 9.33 6.3 9.66 8 10 C8 7.03 8 4.06 8 1 C6.68 2.32 5.36 3.64 4 5 C4 3.68 4 2.36 4 1 C3.01 1 2.02 1 1 1 C0.67 1.66 0.34 2.32 0 3 C0 2.01 0 1.02 0 0 Z " fill="#A0C5EA" transform="translate(134,99)"/>
<path d="M0 0 C0.33 0 0.66 0 1 0 C1.33 4.29 1.66 8.58 2 13 C0.35 13.33 -1.3 13.66 -3 14 C-4.25955231 10.22134307 -3.48087189 8.96588214 -2.0625 5.3125 C-1.68222656 4.31863281 -1.30195313 3.32476562 -0.91015625 2.30078125 C-0.60980469 1.54152344 -0.30945313 0.78226563 0 0 Z " fill="#A9D1F6" transform="translate(156,46)"/>
<path d="M0 0 C0.33 0 0.66 0 1 0 C1 2.64 1 5.28 1 8 C-5.6 8 -12.2 8 -19 8 C-18.67 7.01 -18.34 6.02 -18 5 C-14.04 5 -10.08 5 -6 5 C-6 5.33 -6 5.66 -6 6 C-3.03 6.495 -3.03 6.495 0 7 C0 4.69 0 2.38 0 0 Z " fill="#99C0E1" transform="translate(105,102)"/>
<path d="M0 0 C2.475 0.99 2.475 0.99 5 2 C4.67 3.65 4.34 5.3 4 7 C1.36 7 -1.28 7 -4 7 C-4 6.34 -4 5.68 -4 5 C-3.34 5 -2.68 5 -2 5 C-1.34 3.35 -0.68 1.7 0 0 Z " fill="#A1CDF4" transform="translate(111,65)"/>
<path d="M0 0 C0.33 0 0.66 0 1 0 C1 6.6 1 13.2 1 20 C-3.29 20 -7.58 20 -12 20 C-12 19.67 -12 19.34 -12 19 C-8.04 19 -4.08 19 0 19 C-0.33 17.2675 -0.66 15.535 -1 13.75 C-1.6465936 10.35538361 -2 7.47976503 -2 4 C-1.34 4 -0.68 4 0 4 C0 2.68 0 1.36 0 0 Z " fill="#94BDE1" transform="translate(105,52)"/>
<path d="M0 0 C0.66 0 1.32 0 2 0 C2 2.97 2 5.94 2 9 C0.35 9 -1.3 9 -3 9 C-4 6 -4 6 -3 3 C-2.01 2.67 -1.02 2.34 0 2 C0 1.34 0 0.68 0 0 Z " fill="#9DCDFD" transform="translate(140,100)"/>
<path d="M0 0 C6.93 0.495 6.93 0.495 14 1 C14 2.32 14 3.64 14 5 C13.34 5 12.68 5 12 5 C12 4.34 12 3.68 12 3 C8.04 3 4.08 3 0 3 C0 2.01 0 1.02 0 0 Z " fill="#90C1F7" transform="translate(91,51)"/>
<path d="M0 0 C0.33 0.99 0.66 1.98 1 3 C2.32 3 3.64 3 5 3 C5 2.34 5 1.68 5 1 C7.64 1 10.28 1 13 1 C13 1.99 13 2.98 13 4 C8.71 4 4.42 4 0 4 C0 2.68 0 1.36 0 0 Z " fill="#98BFE4" transform="translate(131,84)"/>
<path d="M0 0 C0.99 0 1.98 0 3 0 C3 1.32 3 2.64 3 4 C-3.6 4 -10.2 4 -17 4 C-16.67 3.34 -16.34 2.68 -16 2 C-10.72 2 -5.44 2 0 2 C0 1.34 0 0.68 0 0 Z " fill="#A2C0DB" transform="translate(90,117)"/>
<path d="M0 0 C0.66 0 1.32 0 2 0 C2.125 5.75 2.125 5.75 1 8 C-1.31 8 -3.62 8 -6 8 C-5.34 7.34 -4.68 6.68 -4 6 C-3.01 6 -2.02 6 -1 6 C-1.020625 5.195625 -1.04125 4.39125 -1.0625 3.5625 C-1 1 -1 1 0 0 Z " fill="#9BCCFC" transform="translate(112,79)"/>
<path d="M0 0 C0.33 0 0.66 0 1 0 C1.33 1.98 1.66 3.96 2 6 C8.93 6.495 8.93 6.495 16 7 C16 7.33 16 7.66 16 8 C15.01257813 8.06058594 14.02515625 8.12117188 13.0078125 8.18359375 C11.72648437 8.26738281 10.44515625 8.35117188 9.125 8.4375 C7.84882812 8.51871094 6.57265625 8.59992188 5.2578125 8.68359375 C2.11699848 8.79206027 2.11699848 8.79206027 0 10 C0 6.7 0 3.4 0 0 Z " fill="#99E3FD" transform="translate(87,61)"/>
<path d="M0 0 C0.33 0 0.66 0 1 0 C1 2.31 1 4.62 1 7 C4.96 7 8.92 7 13 7 C13 7.33 13 7.66 13 8 C9.04 8 5.08 8 1 8 C1 8.66 1 9.32 1 10 C0.34 10 -0.32 10 -1 10 C-0.67 6.7 -0.34 3.4 0 0 Z " fill="#C6DFF8" transform="translate(126,61)"/>
<path d="M0 0 C1.65 0 3.3 0 5 0 C5 1.98 5 3.96 5 6 C3.35 5.67 1.7 5.34 0 5 C0 3.35 0 1.7 0 0 Z " fill="#A8CAEA" transform="translate(110,102)"/>
<path d="M0 0 C0.66 0 1.32 0 2 0 C1.835 0.598125 1.67 1.19625 1.5 1.8125 C0.8885876 4.11344336 0.8885876 4.11344336 1 7 C1.66 7.66 2.32 8.32 3 9 C1.35 9 -0.3 9 -2 9 C-2.125 5.625 -2.125 5.625 -2 2 C-1.34 1.34 -0.68 0.68 0 0 Z " fill="#9CCCFB" transform="translate(89,78)"/>
<path d="M0 0 C-0.66 1.32 -1.32 2.64 -2 4 C-3.98 4 -5.96 4 -8 4 C-7.67 3.01 -7.34 2.02 -7 1 C-4.53721199 -0.231394 -2.7204945 -0.07159196 0 0 Z " fill="#9BC6F7" transform="translate(131,74)"/>
<path d="M0 0 C0.66 0.33 1.32 0.66 2 1 C2 2.32 2 3.64 2 5 C-3.28 5 -8.56 5 -14 5 C-14 4.67 -14 4.34 -14 4 C-7.565 3.505 -7.565 3.505 -1 3 C-0.67 2.01 -0.34 1.02 0 0 Z " fill="#9DBDDD" transform="translate(91,40)"/>
<path d="M0 0 C-0.33 1.65 -0.66 3.3 -1 5 C-2.65 5 -4.3 5 -6 5 C-6 4.01 -6 3.02 -6 2 C-3 0 -3 0 0 0 Z " fill="#96C3ED" transform="translate(130,95)"/>
<path d="M0 0 C1.32 0.33 2.64 0.66 4 1 C3.25 2.9375 3.25 2.9375 2 5 C-0.125 5.75 -0.125 5.75 -2 6 C-1.49396008 3.83125748 -1.00016187 2.00032373 0 0 Z " fill="#A8D1F4" transform="translate(112,57)"/>
<path d="M0 0 C0.99 0 1.98 0 3 0 C3 0.66 3 1.32 3 2 C2.34 2 1.68 2 1 2 C0.67 3.65 0.34 5.3 0 7 C-0.66 6.67 -1.32 6.34 -2 6 C-1.125 1.125 -1.125 1.125 0 0 Z " fill="#3A4650" transform="translate(73,134)"/>
<path d="M0 0 C1.65 0 3.3 0 5 0 C5 0.99 5 1.98 5 3 C3.35 3 1.7 3 0 3 C0 2.01 0 1.02 0 0 Z " fill="#A3C2E0" transform="translate(129,90)"/>
<path d="" fill="#000000" transform="translate(0,0)"/>
</svg>
